<?xml version="1.0" standalone="no"?>
<!DOCTYPE svg PUBLIC "-//W3C//DTD SVG 20010904//EN"
 "http://www.w3.org/TR/2001/REC-SVG-20010904/DTD/svg10.dtd">
<svg version="1.0" xmlns="http://www.w3.org/2000/svg"
 width="400.000000pt" height="400.000000pt" viewBox="0 0 400.000000 400.000000"
 preserveAspectRatio="xMidYMid meet">
<metadata>
Created by potrace 1.11, written by Peter Selinger 2001-2013
</metadata>
<g transform="translate(0.000000,400.000000) scale(0.100000,-0.100000)"
fill="#000000" stroke="none">
<path d="M2296 3728 c-136 -162 -307 -337 -431 -441 -66 -55 -128 -107 -138
-115 -9 -8 -19 -13 -22 -10 -3 3 4 43 15 88 10 46 17 86 15 89 -3 2 -15 -5
-28 -15 -393 -347 -753 -602 -1119 -794 -43 -22 -78 -42 -78 -45 0 -3 36 -26
80 -51 44 -26 80 -50 80 -54 0 -3 -18 -17 -41 -29 l-41 -23 31 -32 c31 -32 84
-152 96 -220 l7 -36 -39 0 c-56 0 -129 -48 -153 -103 -31 -67 -26 -157 20
-363 29 -126 48 -190 66 -217 33 -51 91 -76 170 -77 34 0 76 -3 93 -6 l31 -6
0 -83 c0 -75 3 -85 29 -121 77 -104 368 -352 470 -400 19 -9 58 -32 87 -50 48
-31 51 -36 57 -83 11 -95 33 -121 169 -202 128 -76 229 -119 278 -119 49 0
149 43 275 117 134 80 161 111 172 201 5 48 7 50 73 90 37 23 70 42 73 42 11
0 176 119 252 181 72 59 185 172 223 223 19 24 22 42 22 117 0 49 1 89 3 90 1
0 47 4 102 8 117 9 149 22 187 76 38 55 98 304 105 441 5 88 3 105 -15 140
-25 50 -81 93 -127 101 -19 3 -35 7 -35 8 0 12 54 141 67 161 16 25 15 26 -26
68 l-43 44 54 12 c82 19 84 22 36 57 -63 45 -210 205 -283 308 -78 109 -189
323 -240 462 -21 56 -41 100 -45 98 -4 -3 -13 -41 -21 -85 -7 -44 -16 -80 -20
-80 -8 0 -73 100 -127 196 -48 87 -95 208 -113 289 -6 33 -15 64 -19 68 -4 5
-18 -21 -31 -57 -12 -36 -25 -66 -28 -66 -17 0 -81 214 -81 273 0 15 -4 27 -8
27 -5 0 -44 -42 -86 -92z m73 -203 c40 -150 143 -447 162 -469 4 -5 5 52 2
126 -3 74 -3 152 2 174 l7 39 32 -85 c42 -109 87 -197 146 -285 54 -79 127
-165 141 -165 5 0 9 24 9 53 l1 52 60 -119 c78 -155 165 -281 264 -383 l80
-82 -49 -19 c-28 -10 -52 -24 -54 -30 -2 -6 22 -28 53 -48 30 -21 54 -40 53
-43 -2 -4 -12 -29 -22 -57 l-19 -51 -86 -7 c-47 -3 -114 -11 -149 -17 -35 -6
-65 -9 -68 -6 -8 8 -32 167 -40 261 -4 46 -10 89 -14 95 -4 8 -19 7 -50 -4
-109 -38 -537 -140 -548 -131 -6 7 34 101 84 196 50 94 111 189 190 297 l28
38 -38 -35 c-87 -80 -246 -296 -326 -442 -33 -63 -46 -78 -65 -78 -22 0 -22 2
-14 43 19 86 82 276 135 405 30 74 54 137 54 140 -2 19 -156 -309 -232 -490
-36 -86 -43 -98 -65 -98 -23 0 -24 2 -18 41 4 22 18 75 31 117 36 119 30 112
-69 -78 l-34 -65 -48 0 -48 0 -18 52 c-9 29 -20 78 -24 110 -16 137 -63 389
-71 380 -3 -2 0 -55 5 -118 6 -63 13 -181 17 -262 l7 -148 -29 6 c-16 4 -42
11 -59 16 -39 11 -236 44 -355 59 l-94 12 -23 -28 c-37 -47 -90 -155 -109
-222 l-17 -62 -96 6 c-180 13 -182 13 -196 61 -7 23 -24 63 -39 89 -14 26 -25
48 -24 49 2 2 27 14 56 29 28 14 52 30 52 35 0 4 -26 18 -57 30 -32 11 -69 30
-83 41 -29 24 -42 13 125 112 220 129 506 329 707 495 43 34 80 63 83 63 3 0
5 -36 5 -80 0 -44 3 -80 6 -80 24 0 294 248 520 476 110 110 200 200 201 200
1 -1 15 -51 32 -111z m460 -1277 c18 -92 61 -335 61 -352 0 -3 -43 -6 -96 -6
l-96 0 -46 51 c-58 64 -92 79 -184 79 -91 0 -148 -26 -191 -87 l-31 -43 -245
1 -246 0 -30 42 c-43 60 -102 87 -190 87 -88 0 -147 -27 -190 -87 l-30 -42
-97 0 c-72 -1 -98 2 -98 12 0 6 5 53 11 102 12 102 39 177 95 266 l39 61 95
-5 c60 -4 147 -19 235 -41 246 -62 375 -68 685 -30 113 13 469 80 479 90 2 2
14 4 26 4 20 0 24 -10 44 -102z m-1834 -170 c60 -11 84 -22 72 -34 -6 -6 -205
13 -239 22 -10 3 -18 12 -18 21 0 13 10 15 63 9 34 -4 89 -12 122 -18z m2219
14 c3 -5 3 -18 0 -29 -5 -16 -19 -22 -87 -31 -45 -7 -103 -16 -129 -21 -27 -4
-48 -5 -48 -2 0 3 -3 16 -6 28 -5 19 0 22 48 32 43 9 138 23 205 30 6 0 14 -3
17 -7z m-2296 -76 c37 -8 84 -17 105 -21 34 -5 38 -9 33 -28 -3 -12 -6 -34 -6
-48 0 -25 -2 -26 -77 -33 l-77 -7 -32 33 c-23 22 -35 47 -40 76 -8 49 -7 49
94 28z m2262 -61 c-4 -19 -17 -49 -27 -67 -20 -33 -32 -49 -111 -136 l-43 -47
24 55 c14 30 27 63 30 73 4 11 17 17 37 17 16 0 30 5 30 10 0 6 -11 10 -25 10
-14 0 -25 5 -25 10 0 6 -22 10 -49 10 -50 0 -60 10 -61 62 0 19 69 35 166 37
l62 1 -8 -35z m-2430 -13 c0 -10 16 -34 36 -53 20 -18 63 -67 95 -107 l59 -73
0 -77 c0 -42 -3 -115 -7 -160 l-6 -84 -98 4 c-141 4 -145 9 -181 174 -50 231
-47 299 17 368 29 32 85 37 85 8z m888 -12 c23 -17 42 -35 42 -40 0 -6 -56
-10 -145 -10 -80 0 -145 4 -145 8 0 5 8 16 18 25 35 32 78 47 133 47 46 0 63
-5 97 -30z m905 19 c28 -15 67 -50 67 -61 0 -4 -65 -8 -145 -8 -142 0 -145 0
-135 20 26 49 156 78 213 49z m790 -7 c28 -31 57 -106 57 -149 0 -36 -21 -156
-58 -322 -12 -59 -47 -75 -168 -79 l-104 -4 0 139 0 139 35 34 35 34 30 -34
c16 -19 29 -39 30 -43 0 -4 -11 -25 -25 -45 -14 -20 -25 -42 -25 -49 0 -14 40
-19 40 -5 1 4 10 18 21 31 l20 25 25 -32 c14 -18 30 -32 35 -32 22 0 19 31 -7
65 -30 39 -29 41 20 121 22 35 24 44 12 53 -12 10 -21 3 -47 -36 -18 -26 -34
-50 -36 -53 -6 -6 -63 57 -63 69 0 4 27 33 60 64 47 43 60 61 60 84 0 46 24
58 53 25z m-2338 -159 c13 -29 23 -53 21 -53 -7 0 -76 94 -76 102 0 5 7 8 15
6 9 -2 26 -27 40 -55z m665 15 c0 -7 -186 -12 -437 -13 -45 0 -84 -3 -88 -7
-4 -4 19 -52 50 -107 l57 -101 147 -1 c80 -1 157 -4 171 -9 50 -15 -5 -20
-179 -18 l-174 3 -63 120 c-35 66 -64 123 -64 127 0 4 12 9 28 11 46 8 552 3
552 -5z m427 -4 c9 -23 -15 -34 -74 -34 -54 0 -67 8 -57 34 9 23 122 23 131 0z
m638 7 c51 -6 4 -9 -173 -10 -150 0 -241 3 -237 8 7 12 311 13 410 2z m-975
-73 c0 -11 -18 -45 -40 -75 l-41 -53 -173 0 c-159 0 -175 2 -199 20 -24 19
-26 19 -29 3 -3 -13 -15 -2 -41 40 -21 31 -40 64 -43 72 -5 13 30 15 280 15
l286 0 0 -22z m934 0 c3 -13 6 -36 6 -53 0 -16 -3 -40 -6 -52 -6 -23 -9 -23
-170 -23 l-164 0 -50 68 c-27 37 -50 70 -50 75 0 4 96 7 214 7 213 0 214 0
220 -22z m119 -54 c-25 -41 -46 -74 -48 -72 -1 2 -6 36 -9 76 l-7 72 55 0 54
0 -45 -76z m-666 -25 c31 -40 51 -78 58 -108 9 -41 13 -46 40 -49 16 -2 35
-12 43 -23 12 -17 27 -19 185 -19 95 0 186 -4 204 -9 17 -5 35 -5 40 0 4 4 46
9 92 11 89 3 91 4 112 63 7 21 12 26 18 16 5 -8 13 -11 19 -7 15 9 22 -57 22
-232 0 -143 -2 -168 -20 -202 -36 -70 -151 -170 -375 -325 l-140 -97 -7 64
c-4 34 -11 105 -16 155 -13 131 -23 143 -236 287 l-176 120 -176 -120 c-97
-65 -184 -131 -195 -145 -32 -46 -41 -81 -49 -213 -5 -71 -12 -131 -14 -134
-12 -11 -337 221 -429 307 -28 25 -63 66 -79 90 l-28 45 0 225 c0 215 1 224
17 201 l17 -24 11 28 c11 27 12 26 36 -36 l25 -63 74 -3 c41 -2 79 -7 86 -13
7 -6 21 -6 38 1 15 5 110 10 210 10 170 0 184 1 201 20 10 11 26 20 35 20 12
0 20 11 24 31 3 17 34 66 68 110 l63 79 77 0 77 0 48 -61z m669 -73 l-15 -36
-233 2 -232 3 -19 35 c-14 27 -14 30 -1 13 16 -23 19 -23 249 -23 l232 0 13
25 c20 36 24 23 6 -19z m-682 -456 c127 -92 172 -135 181 -173 19 -80 65 -364
65 -399 0 -79 -21 -98 -240 -220 -64 -35 -84 -41 -135 -42 -57 -1 -67 3 -180
68 -192 110 -208 134 -181 261 8 39 22 122 31 185 19 137 28 166 60 202 19 22
261 206 273 208 1 0 58 -40 126 -90z"/>
<path d="M696 1793 c-12 -13 -5 -35 24 -78 37 -53 37 -59 4 -102 -26 -34 -26
-63 -2 -63 7 0 22 14 33 30 11 16 23 30 27 30 4 0 15 -13 25 -30 17 -30 53
-41 53 -17 0 7 -11 29 -25 50 -28 40 -27 42 18 100 29 37 31 72 3 61 -8 -3
-27 -23 -42 -45 l-27 -39 -33 49 c-36 53 -48 64 -58 54z"/>
<path d="M1562 1731 c-8 -5 -12 -21 -10 -37 2 -23 9 -30 30 -32 19 -2 30 3 38
17 21 40 -20 77 -58 52z"/>
<path d="M1932 1110 c-90 -61 -163 -130 -183 -175 -15 -31 -19 -65 -19 -156 0
-113 1 -117 25 -133 15 -10 46 -16 83 -16 71 0 86 14 97 84 4 32 15 57 32 74
l26 26 23 -27 c13 -15 26 -47 30 -74 10 -70 25 -83 99 -83 48 0 66 4 83 20 20
19 22 30 22 133 0 87 -5 121 -19 152 -20 44 -84 107 -178 172 l-61 43 -60 -40z
m184 -118 c19 -20 34 -39 34 -43 0 -4 -66 -9 -147 -12 -82 -3 -159 -9 -173
-13 l-25 -8 30 40 c39 53 42 55 104 97 l54 36 45 -31 c25 -17 60 -47 78 -66z
m81 -202 c5 -74 -10 -113 -45 -118 -32 -5 -50 14 -57 57 -15 85 -57 141 -107
141 -41 0 -73 -37 -93 -106 -9 -32 -21 -66 -25 -74 -8 -18 -49 -24 -69 -11
-16 11 -27 103 -17 154 6 34 8 34 79 46 39 7 123 15 185 18 70 4 112 10 113
17 2 34 32 -69 36 -124z"/>
</g>
</svg>
